<svg id="basket" viewBox="0 0 22 22">
<path d="M9.2 17.8c-1.1 0-1.9.9-1.9 2.1 0 1.2.9 2.1 1.9 2.1s1.9-.9 1.9-2.1c.1-1.1-.8-2.1-1.9-2.1zm0 3c-.5 0-.9-.4-.9-.9s.4-.9.9-.9.9.4.9.9-.4.9-.9.9zM16 17.8c-1.1 0-1.9.9-1.9 2.1 0 1.2.9 2.1 1.9 2.1 1.1 0 1.9-.9 1.9-2.1 0-1.1-.8-2.1-1.9-2.1zm0 3c-.5 0-.9-.4-.9-.9s.4-.9.9-.9.9.4.9.9-.4.9-.9.9zM16.5 6.8H8.7c-.3 0-.5.3-.5.6s.2.6.5.6h7.7c.4 0 .6-.3.6-.6s-.2-.6-.5-.6zM16.1 9.8H9.2c-.3 0-.5.3-.5.6s.2.6.5.6h6.9c.3 0 .5-.3.5-.6s-.2-.6-.5-.6z"></path>
<path d="M21.8 4.2c-.2-.3-.5-.4-.8-.4H4.1L3.8 2c-.1-.4-.4-.7-.7-.8L.8 0C.5-.1.2.1 0 .4c-.1.3 0 .6.3.8l2.4 1.1L5.3 16c.1.5.5.9 1.1.9h12.9c.3 0 .5-.3.5-.6s-.2-.6-.5-.6H6.4L6 14h13.4c.5 0 1-.4 1.1-.9L22 5.2c0-.4 0-.7-.2-1zm-2.4 8.7H5.8l-1.5-8h16.6l-1.5 8z"></path>
</svg>



