<svg id="car" viewBox="0 0 36 18" width="100%" height="100%"><path d="M35.6 7.8c-.3-.4-.8-.7-1.3-.8l-6.7-.9L21.5.8c-.6-.5-1.3-.8-2.1-.8H9.7c-.8 0-1.6.4-2 1.2L4.8 5.7l-3.3 1C.5 7.1-.1 8.2 0 9.3l.5 3.3c.2 1.5 1.4 2.5 2.8 2.5h3.9c.2 1.7 1.6 2.9 3.3 2.9 1.7 0 3-1.3 3.3-2.9h10.8c.3 1.7 1.6 2.9 3.3 2.9s3-1.3 3.3-2.9h2c1.1 0 2.1-.9 2.3-2l.5-3.8c.1-.5-.1-1.1-.4-1.5zm-25.1 9.1c-1.3 0-2.3-1.1-2.3-2.4 0-1.3 1-2.4 2.3-2.4 1.3 0 2.3 1.1 2.3 2.4 0 1.4-1.1 2.4-2.3 2.4zm17.4 0c-1.3 0-2.3-1.1-2.3-2.4 0-1.3 1-2.4 2.3-2.4s2.3 1.1 2.3 2.4c-.1 1.4-1.1 2.4-2.3 2.4zm6.5-4c-.1.7-.6 1.1-1.3 1.1h-2c-.2-1.7-1.6-2.9-3.3-2.9-1.7 0-3 1.3-3.3 2.9H13.8c-.2-1.7-1.6-2.9-3.3-2.9-1.7 0-3 1.3-3.3 2.9H3.3c-.9 0-1.7-.7-1.8-1.6L1 9.1c0-.6.3-1.1.8-1.3l3.5-1.1c.1 0 .2-.1.3-.2l2.9-4.7c.3-.4.7-.7 1.2-.7h9.7c.5 0 1.1.2 1.5.6L27 7.1c.1.1.2.1.3.1l6.9.9c.2 0 .5.2.6.4.1.2.2.4.2.7l-.6 3.7z"></path><path d="M21.8 6.6H10c-.3 0-.5.2-.5.5s.2.5.5.5h11.8c.3 0 .5-.2.5-.5s-.2-.5-.5-.5z"></path></svg>
